# xmcd
#
# Track frame offsets: 
#        150
#        17285
#        32912
#        59592
#        71945
#        88807
#        99330
#        111475
#        127852
#        150875
#
# Disc length: 2193 seconds
#
# Revision: 0
# Processed by: cddbd v1.5.2PL0 Copyright (c) Steve Scherf et al.
# Submitted via: ExactAudioCopyFreeDBPlugin 1.0
#
DISCID=7c088f0a
DTITLE=The Soul Survivors  - When The Whistle Blows Anything Goes
DYEAR=1967
DGENRE=Soul
TTITLE0=Do You Feel It
TTITLE1=Please, Please, Please
TTITLE2=Too Many Fish in the Sea - Shake
TTITLE3=Dathon’s Theme
TTITLE4=Taboo - India
TTITLE5=Expressway (To Your Heart)
TTITLE6=Respect
TTITLE7=A Change is Gonna Come
TTITLE8=Hey Gyp
TTITLE9=The Rydle
EXTD=
EXTT0=
EXTT1=
EXTT2=
EXTT3=
EXTT4=
EXTT5=
EXTT6=
EXTT7=
EXTT8=
EXTT9=
PLAYORDER=
